<svg width="101" height="10" viewBox="0 0 101 10" fill="none" xmlns="http://www.w3.org/2000/svg">
<g clip-path="url(#clip0_36139_18045)">
<path fill-rule="evenodd" clip-rule="evenodd" d="M18.741 0.369455L10.8876 7.77955C10.6121 8.03944 10.8173 8.46912 11.2168 8.46912H18.9056C19.0311 8.46912 19.1328 8.37775 19.1328 8.26504V0.510156C19.1328 0.3259 18.8824 0.23599 18.741 0.369455ZM8.74523 2.22L0.891843 9.63009C0.750394 9.76356 0.5 9.67365 0.5 9.48939V1.73451C0.5 1.6218 0.60174 1.53043 0.727242 1.53043H8.41603C8.81554 1.53043 9.02067 1.96011 8.74523 2.22ZM50.3157 2.41956C50.0623 2.29063 49.7592 2.17949 49.4065 2.07724C48.7954 1.90386 47.8812 1.73047 46.6491 1.73047C44.1003 1.73047 43.1166 2.63739 43.1166 3.74882C43.1166 4.78021 43.7625 5.57155 46.5199 5.83384C48.1694 5.99833 48.5271 6.05168 48.5271 6.37177C48.5271 6.78077 47.7967 6.89636 46.5 6.89636C45.7101 6.89636 45.0542 6.78522 44.5971 6.66519C44.3239 6.5985 44.0854 6.51848 43.8767 6.43401L42.893 7.71881C43.1265 7.85663 43.4197 7.98111 43.7724 8.09225C44.3736 8.28342 45.2977 8.46124 46.5994 8.46124C48.9643 8.46124 50.6486 7.90109 50.6486 6.37177C50.6486 5.1092 49.635 4.58016 46.9273 4.30897C45.6902 4.18894 45.2381 4.09113 45.2381 3.74882C45.2381 3.41094 45.7895 3.29536 46.7484 3.29536C47.5086 3.29536 48.1495 3.39761 48.6066 3.49986C48.8749 3.55765 49.1183 3.62878 49.332 3.70436L50.3157 2.41956ZM32.2316 2.83745L28.1774 6.71853H32.2316V8.28342H24.7543V7.35427L28.8034 3.47318H24.8536V1.9083H32.2316V2.83745ZM42.4387 8.28342H40.1831L39.5521 7.25202H35.7762L35.1452 8.28342H32.8896L36.7997 1.9083H38.5286L42.4387 8.28342ZM38.6777 5.82051L37.6642 4.16226L36.6506 5.82051H38.6777ZM61.1538 5.09586C61.1538 6.9586 59.6136 8.46124 56.255 8.46124C52.8964 8.46124 51.3563 6.9586 51.3563 5.09586C51.3563 3.23312 52.8964 1.73047 56.255 1.73047C59.6136 1.73047 61.1538 3.23312 61.1538 5.09586ZM53.4777 5.09586C53.4777 6.00278 54.0739 6.89636 56.255 6.89636C58.4361 6.89636 59.0323 6.00278 59.0323 5.09586C59.0323 4.18894 58.4361 3.29536 56.255 3.29536C54.0739 3.29536 53.4777 4.18894 53.4777 5.09586ZM63.4662 1.9083H61.2106L65.0213 8.28342H66.7503L70.561 1.9083H68.3054L65.8858 6.02945L63.4662 1.9083ZM77.3698 2.07724C77.7225 2.17949 78.0256 2.29063 78.279 2.41956L77.2953 3.70436C77.0816 3.62878 76.8382 3.55765 76.5699 3.49986C76.1128 3.39761 75.4719 3.29536 74.7117 3.29536C73.7529 3.29536 73.2014 3.41094 73.2014 3.74882C73.2014 4.09113 73.6535 4.18894 74.8906 4.30897C77.5983 4.58016 78.6119 5.1092 78.6119 6.37177C78.6119 7.90109 76.9276 8.46124 74.5627 8.46124C73.261 8.46124 72.3369 8.28342 71.7357 8.09225C71.383 7.98111 71.0898 7.85663 70.8563 7.71881L71.8401 6.43401C72.0487 6.51848 72.2872 6.5985 72.5605 6.66519C73.0175 6.78522 73.6734 6.89636 74.4633 6.89636C75.7601 6.89636 76.4904 6.78077 76.4904 6.37177C76.4904 6.05168 76.1327 5.99833 74.4832 5.83384C71.7258 5.57155 71.0799 4.78021 71.0799 3.74882C71.0799 2.63739 72.0636 1.73047 74.6124 1.73047C75.8445 1.73047 76.7587 1.90386 77.3698 2.07724ZM81.6199 4.27785V1.9083H79.5183V8.28342H81.6199V6.30953L82.3999 5.73159L85.053 8.28342H87.6216L83.8507 4.66018L87.572 1.9083H84.8245L81.6199 4.27785ZM90.4806 8.28342H88.379V1.9083H90.4806V8.28342ZM93.7172 1.9083H91.238L94.8152 5.75382V8.28342H96.9217V5.75382L100.499 1.9083H98.0197L95.8685 4.22895L93.7172 1.9083Z" fill="#414141"/>
</g>
<defs>
<clipPath id="clip0_36139_18045">
<rect width="100" height="10" fill="white" transform="translate(0.5)"/>
</clipPath>
</defs>
</svg>
